<?xml version="1.0" encoding="utf-8"?>
<!-- Generator: Adobe Illustrator 22.0.1, SVG Export Plug-In . SVG Version: 6.00 Build 0)  -->
<svg version="1.1" id="Layer_1" xmlns="http://www.w3.org/2000/svg" xmlns:xlink="http://www.w3.org/1999/xlink" x="0px" y="0px"
	 viewBox="0 0 442.2 153.1" style="enable-background:new 0 0 442.2 153.1;" xml:space="preserve">
<style type="text/css">
	.st0{fill:#F6F6F6;}
	.st1{fill-rule:evenodd;clip-rule:evenodd;fill:#F6F6F6;}
</style>
<g>
	<g>
		<path class="st0" d="M308.7,27.6c-0.5-0.1-1-0.1-1.4,0c-0.5,0-0.9,0.1-1.4,0.1c-0.3,0-0.7,0-1,0.1c-0.4,0-0.9,0.1-1.3,0.1
			c-1.6,0.1-3.3,0.2-4.9,0.3c-0.1,0-0.2,0-0.3,0l0,0c-42.7,2.8-71.4,7.2-95.3,13.8c-26.8,7.4-40.1,16.9-39.5,28.4
			C164.5,88.5,222.2,88,247,87l0.7,0c4-0.2,8-0.4,11.3-0.6l0,0c0.6,0,2.9-0.2,2.9-0.2c0.1,0,0.3,0,0.4,0c0.2,0,0.3,0,0.5,0
			c0.2,0,0.3,0,0.5,0c0.2,0,0.3,0,0.5,0c0.2,0,0.3,0,0.5,0c0.2,0,0.3,0,0.5,0c0.2,0,0.3,0,0.5,0c0.2,0,0.4,0,0.5-0.1
			c0.2,0,0.3-0.1,0.5-0.2c0.2-0.1,0.4-0.3,0.4-0.5c0-0.2-0.2-0.3-0.4-0.4c-0.2,0-0.3,0-0.5,0c-0.2,0-0.3,0-0.5,0c-0.1,0-0.2,0-0.3,0
			c-0.3,0-0.7,0-1,0c-0.4,0-0.7,0-1.1,0c-0.4,0-0.7,0-1.1,0l-2.3,0l0,0c-17.8,0.3-39.1-1-39.4-1c-9.4-0.6-34-3.7-35.3-10.9
			c-0.4-2.5,1.9-6.8,15.5-13.1c29.1-13.6,69.3-21.9,97-26.6c0.1,0,0.3,0,0.5-0.1c1.4-0.2,2.8-0.5,4.1-0.7l0,0
			c0.4-0.1,0.7-0.1,1.1-0.2c0.5-0.1,0.9-0.1,1.4-0.2c0.5-0.1,0.9-0.2,1.4-0.2c0.5-0.1,1.1-0.2,1.6-0.4c0.5-0.2,1-0.4,1.5-0.8
			c0.5-0.4,1.2-1,1.3-1.7C310.1,28,309.3,27.7,308.7,27.6z"/>
		<path class="st0" d="M265.1,3.8c0.2,0,0.4,0,0.5,0c0.4,0,0.9,0,1.3,0c0.1,0,0.3,0,0.4,0c0.2,0,0.4,0,0.6,0c0.2,0,0.4,0,0.6,0.1
			c0.2,0.1,0.6,0.2,0.5,0.5c-0.1,0.3-0.4,0.5-0.6,0.7c-0.2,0.1-0.4,0.2-0.7,0.3c-0.2,0.1-0.5,0.1-0.7,0.1c-0.2,0-0.4,0-0.6,0
			c0,0-0.1,0-0.1,0c-0.1,0-0.3,0-0.5,0c-23.6,1.5-55.8,6.4-56.1,6.4c-11.9,1.9-42.9,8.7-43.5,17.7c-0.2,3.1,3.4,8.1,21.6,14.3
			c0,0,0,0,0.1,0c1.1,0.4,2.3,0.8,3.4,1.1c1.2,0.4,2.3,0.7,3.5,1.1c1.2,0.4,2.4,0.7,3.6,1.1c1.2,0.3,2.5,0.7,3.7,1
			c1.3,0.3,2.5,0.7,3.8,1c1.3,0.3,2.6,0.6,3.9,1c1.3,0.3,2.7,0.6,4,0.9c1.4,0.3,2.7,0.6,4.1,0.9c1.4,0.3,2.7,0.6,4.1,0.9
			c1.4,0.3,2.8,0.6,4.2,0.8c1.4,0.3,2.8,0.5,4.2,0.8c1.4,0.3,2.8,0.5,4.3,0.8c1.4,0.3,2.9,0.5,4.3,0.7c1.4,0.2,2.9,0.5,4.3,0.7
			c1.5,0.2,2.9,0.5,4.4,0.7c1.5,0.2,2.9,0.4,4.4,0.7c1.5,0.2,2.9,0.4,4.4,0.6c1.5,0.2,2.9,0.4,4.4,0.6c1.5,0.2,2.9,0.4,4.4,0.6
			c1.5,0.2,2.9,0.4,4.4,0.6c1.4,0.2,2.9,0.4,4.3,0.5c1.4,0.2,2.9,0.3,4.3,0.5c1.4,0.2,2.8,0.3,4.3,0.5c1.4,0.2,2.8,0.3,4.2,0.5
			c1.4,0.1,2.8,0.3,4.2,0.4c1.4,0.1,2.7,0.3,4.1,0.4c1.3,0.1,2.7,0.3,4,0.4c1.3,0.1,2.6,0.2,4,0.4c1.3,0.1,2.6,0.2,3.9,0.3
			c1.3,0.1,2.5,0.2,3.8,0.3c1.2,0.1,2.5,0.2,3.7,0.3c1.2,0.1,2.4,0.2,3.6,0.3c1.2,0.1,2.3,0.2,3.5,0.3c1.1,0.1,2.3,0.2,3.4,0.2
			c1.1,0.1,2.2,0.2,3.3,0.2c1,0.1,2.1,0.1,3.1,0.2c0.3,0,0.7,0,1,0.1c0.5,0,0.9,0.1,1.4,0.1c0.5,0,1,0.1,1.4,0.2
			c0.6,0.2,1.3,0.6,1.1,1.3c-0.2,0.7-0.9,1.2-1.5,1.5c-0.5,0.3-1,0.4-1.6,0.6c-0.5,0.1-1.1,0.2-1.7,0.2c-0.5,0-0.9,0-1.4,0
			c-0.5,0-0.9,0-1.4,0c-0.5,0-0.9,0-1.4,0c-0.5,0-0.9,0-1.4,0c-0.5,0-0.9,0-1.4,0c-0.5,0-0.9,0-1.4,0c-0.5,0-0.9,0-1.4,0
			c-0.5,0-0.9,0-1.4,0c-0.5,0-0.9,0-1.4,0c-0.5,0-0.9,0-1.4,0c-0.5,0-0.9,0-1.4,0c-0.5,0-0.9,0-1.4,0c-0.5,0-0.9,0-1.4,0
			c-0.5,0-0.9,0-1.4,0c-0.5,0-0.9,0-1.4,0c-0.5,0-0.9,0-1.4,0c-0.4,0-0.9,0-1.3,0c-0.4,0-0.9,0-1.3,0c-0.4,0-0.9,0-1.3,0
			c-0.4,0-0.9,0-1.3,0c-0.4,0-0.9,0-1.3,0c-0.4,0-0.9,0-1.3,0c-0.4,0-0.9,0-1.3,0c-0.4,0-0.9,0-1.3,0c-0.4,0-0.9,0-1.3,0
			c-0.4,0-0.9,0-1.3,0c-0.4,0-0.9,0-1.3,0c-0.4,0-0.9,0-1.3,0c-0.4,0-0.9,0-1.3,0c-0.4,0-0.9,0-1.3,0c-0.4,0-0.9,0-1.3,0
			c-0.4,0-0.9,0-1.3,0c-0.4,0-0.9,0-1.3,0c-0.4,0-0.8,0-1.3,0c-0.4,0-0.8,0-1.3,0c-0.4,0-0.8,0-1.3,0c-0.4,0-0.8,0-1.3,0
			c-0.4,0-0.8,0-1.3,0c-0.4,0-0.8,0-1.2,0c-0.4,0-0.8,0-1.2,0c-0.4,0-0.8,0-1.2,0c-0.4,0-0.8,0-1.2,0c-0.4,0-0.8,0-1.2,0
			c-0.4,0-0.8,0-1.2,0c-0.4,0-0.8,0-1.2,0c-0.4,0-0.8,0-1.2,0c-0.4,0-0.8,0-1.2,0c-0.4,0-0.8,0-1.2,0c-0.4,0-0.8,0-1.2,0
			c-0.4,0-0.8,0-1.2,0c-0.4,0-0.8,0-1.2,0c-0.4,0-0.8,0-1.2,0c-0.4,0-0.8,0-1.2,0c-0.4,0-0.8,0-1.2,0c-0.4,0-0.8,0-1.2,0
			c-0.4,0-0.8,0-1.2,0c-0.4,0-0.8,0-1.2,0c-0.4,0-0.8,0-1.2,0c-0.4,0-0.8,0-1.2,0c-0.4,0-0.8,0-1.1,0c-0.4,0-0.8,0-1.1,0
			c-0.4,0-0.8,0-1.1,0c-0.4,0-0.8,0-1.1,0c-0.4,0-0.7,0-1.1,0c-0.4,0-0.7,0-1.1,0c-0.4,0-0.7,0-1.1,0c-0.4,0-0.7,0-1.1,0
			c-0.4,0-0.7,0-1.1,0c-0.4,0-0.7,0-1.1,0c-0.4,0-0.7,0-1.1,0c-0.4,0-0.7,0-1.1-0.1c-0.4,0-0.7,0-1.1-0.1c-0.4,0-0.7,0-1.1-0.1
			c-0.4,0-0.7,0-1.1-0.1c-0.4,0-0.7,0-1.1-0.1c-0.4,0-0.7,0-1.1-0.1c-0.4,0-0.7,0-1.1-0.1c-0.4,0-0.7,0-1.1-0.1c-0.3,0-0.7,0-1-0.1
			c-0.3,0-0.7,0-1-0.1c-0.3,0-0.7,0-1-0.1c-0.3,0-0.7,0-1-0.1c-0.3,0-0.7,0-1-0.1c-0.3,0-0.7,0-1-0.1c-0.3,0-0.7,0-1-0.1
			c-0.3,0-0.7,0-1-0.1c-0.3,0-0.7-0.1-1-0.1c-0.3,0-0.7-0.1-1-0.1c-0.3,0-0.7-0.1-1-0.1c-0.3,0-0.7-0.1-1-0.1c-0.3,0-0.7-0.1-1-0.1
			c-0.3,0-0.6-0.1-1-0.1c-0.3,0-0.6-0.1-1-0.1c-0.3,0-0.6-0.1-1-0.1c-0.3,0-0.6-0.1-1-0.1c-0.3,0-0.6-0.1-1-0.1
			c-0.3,0-0.6-0.1-0.9-0.1c-0.3,0-0.6-0.1-0.9-0.1c-0.3,0-0.6-0.1-0.9-0.1c-0.3,0-0.6-0.1-0.9-0.1c-0.3,0-0.6-0.1-0.9-0.1
			c-0.3,0-0.6-0.1-0.9-0.1c-0.3,0-0.6-0.1-0.9-0.1c-0.3,0-0.6-0.1-0.9-0.1c-0.3,0-0.6-0.1-0.9-0.1c-0.3,0-0.6-0.1-0.9-0.1
			c-0.3,0-0.6-0.1-0.9-0.1c-0.3,0-0.6-0.1-0.9-0.1c-0.3,0-0.6-0.1-0.9-0.1c-0.3,0-0.6-0.1-0.9-0.1c-0.3,0-0.6-0.1-0.9-0.1
			c-0.3,0-0.6-0.1-0.9-0.1c-0.3,0-0.6-0.1-0.9-0.1c-0.3,0-0.6-0.1-0.8-0.1c-0.3,0-0.6-0.1-0.8-0.1c-0.3,0-0.6-0.1-0.8-0.1
			c-0.3,0-0.6-0.1-0.8-0.1c-0.3,0-0.5-0.1-0.8-0.1c-0.3,0-0.5-0.1-0.8-0.1c-0.3,0-0.5-0.1-0.8-0.1c-0.3,0-0.5-0.1-0.8-0.1
			c-0.3,0-0.5-0.1-0.8-0.1c-35.3-5.9-53.6-16.1-54.5-30.3c-1.5-22.6,72.3-29,104.1-30.8l0.9,0c6.2-0.3,12.3-0.6,17.1-0.6
			c0.5,0,1.1,0,1.4,0L265.1,3.8z"/>
	</g>
	<g>
		<g>
			<g>
				<path class="st1" d="M62,140.6c-4,1.4-8.6,2.1-13.5,2.1c-5.3,0-9.8-0.9-13.3-2.7c-3.5-1.8-5.3-4.4-5.3-7.6c0-3,1.4-6.1,4.2-9.1
					c2.7-3,6.4-5.3,10.9-6.7s9.5-2.1,14.7-2.1c4.8,0,8.7,0.5,11.6,1.6c2.9,1.1,4.8,2.8,5.9,5.2l18.3-0.8c-1-4.1-4.8-7.3-10.9-9.8
					c-6.2-2.4-14.4-3.6-24.4-3.6c-9,0-17.3,1-24.8,3.1c-7.7,2.1-13.6,5-17.9,8.9c-4.3,3.9-6.4,8.1-6.4,12.9c0,5.7,3.3,10.2,9.6,13.2
					c6.4,3,15.2,4.5,26.7,4.5c10,0,18.8-1.2,26.4-3.7c7.5-2.4,13.1-5.9,16.9-10.6l-19.2-1.3C69.2,137.1,66.2,139.2,62,140.6z"/>
				<polygon class="st1" points="177.7,114.8 181,107.9 112.1,107.9 92.6,149 165.3,149 168.5,142.1 114.4,142.1 119.9,131 
					168.4,131 171.6,124.1 123.4,124.1 127.9,114.8 				"/>
			</g>
		</g>
		<polygon class="st1" points="260.8,107.9 187.5,107.9 184.4,114.8 211.7,114.8 195.4,149 214.5,149 230.8,114.8 257.7,114.8 		"/>
		<path class="st1" d="M335.6,112.5c-2.5-1.7-5.6-2.9-9.6-3.6c-3.9-0.6-9.5-1-16.5-1h-41.3L248.7,149h19.1l8.1-17h7.8
			c4.5,0,7.8,0.3,9.6,0.8c2.9,0.9,5.7,2.7,8.3,5.3c4.8,4.9,8.1,8.5,9.8,10.8h20.5c-5.2-5.9-10-10.4-14.3-13.6
			c-2.1-1.6-4.4-2.9-6.9-3.8c9.6-0.6,16.8-2,21.4-4.2c4.8-2.2,7.2-5.2,7.2-8.6C339.3,116.3,338.1,114.2,335.6,112.5z M317.3,122.5
			c-2,1.2-4.6,2-7.9,2.6c-3.4,0.5-10.1,0.8-20.4,0.8h-10.3l5.3-11.1h21.1c5.6,0,9.2,0.2,10.9,0.7c2.7,0.7,4.2,1.8,4.2,3.4
			C320.2,120.2,319.3,121.4,317.3,122.5z"/>
		<path class="st1" d="M422.9,112c-7-3.2-16.4-4.8-27.8-4.8c-8.7,0-16.4,0.7-23,2.3c-6.8,1.5-12.3,3.7-16.8,6.3
			c-4.4,2.6-7.7,5.8-9.9,9.4c-1.7,2.7-2.5,5.3-2.5,7.7c0,2.6,1.2,5.2,3.6,7.8c2.5,2.6,6.6,4.7,12.6,6.5c5.9,1.7,13.1,2.6,21.8,2.6
			c9.9,0,18.8-1.1,26.8-3.3c7.9-2.2,14.2-5.3,18.8-9.4c4.5-4,6.9-8.2,6.9-12.5v-0.2C433.5,119.3,430,115.1,422.9,112z M409.8,133.6
			c-3.1,3-7,5.3-11.8,6.9c-4.7,1.5-9.6,2.2-14.8,2.2c-6.4,0-11.4-1-15.3-2.9c-3.9-1.9-5.9-4.3-5.9-7.1c0-4.6,3-8.8,8.8-12.7
			c5.9-3.8,13.4-5.8,22.8-5.8c6.1,0,11,0.9,15.1,2.8c3.9,1.8,5.9,4.4,5.9,7.6C414.4,127.6,412.9,130.5,409.8,133.6z"/>
	</g>
</g>
</svg>
